<svg width="45" height="31" viewBox="0 0 45 31" fill="none" xmlns="http://www.w3.org/2000/svg">
<g filter="url(#filter0_d)">
<rect width="44" height="30" rx="3" fill="#E8EEFF"/>
<rect x="0.5" y="0.5" width="43" height="29" rx="2.5" stroke="black"/>
</g>
<path fill-rule="evenodd" clip-rule="evenodd" d="M9.13873 22.2699V16.0933H16.1239L16.8734 17.008L17.6476 16.0933H43.0022V21.8439C43.0022 21.8439 42.3391 22.2637 41.5722 22.2699H27.5329L26.6879 21.2962V22.2699H23.919V20.6078C23.919 20.6078 23.5408 20.8398 22.7231 20.8398H21.7806V22.2699H17.5883L16.84 21.3356L16.0801 22.2699H9.13873ZM1 11.4382L2.57162 8H5.28957L6.18148 9.92594V8H9.56014L10.0911 9.39201L10.6058 8H25.7725V8.69981C25.7725 8.69981 26.5698 8 27.8801 8L32.8012 8.01614L33.6777 9.91687V8H36.5051L37.2833 9.09182V8H40.1367V14.1766H37.2833L36.5376 13.0812V14.1766H32.3834L31.9657 13.2029H30.8489L30.4379 14.1766H27.6207C26.4933 14.1766 25.7725 13.4911 25.7725 13.4911V14.1766H21.5249L20.6818 13.2029V14.1766H4.88692L4.46945 13.2029H3.35624L2.94172 14.1766H1V11.4382ZM1.00735 13.3865L3.12712 8.76163H4.73417L6.85192 13.3865H5.44144L5.05234 12.4604H2.77855L2.38743 13.3865H1.00735ZM4.60461 11.456L3.91153 9.83769L3.21642 11.456H4.60461ZM6.99851 13.3854V8.76058L8.95968 8.76741L10.1004 11.7492L11.2137 8.76058H13.1592V13.3854H11.9271V9.97764L10.621 13.3854H9.54039L8.23065 9.97764V13.3854H6.99851ZM14.002 13.3854V8.76058H18.0227V9.79508H15.2471V10.5862H17.9578V11.5598H15.2471V12.3813H18.0227V13.3854H14.002ZM18.7361 13.3865V8.76163H21.4781C22.3866 8.76163 23.2006 9.28881 23.2006 10.262C23.2006 11.094 22.5143 11.6299 21.8489 11.6826L23.4701 13.3865H21.9644L20.4871 11.7434H19.9683V13.3865H18.7361ZM21.3773 9.79594H19.9688V10.7696H21.3955C21.6425 10.7696 21.9609 10.59 21.9609 10.2828C21.9609 10.0439 21.7151 9.79594 21.3773 9.79594ZM24.9615 13.3854H23.7034V8.76058H24.9615V13.3854ZM27.9454 13.3854H27.6738C26.3599 13.3854 25.5622 12.414 25.5622 11.092C25.5622 9.73731 26.351 8.76058 28.0102 8.76058H29.3721V9.85593H27.9604C27.2869 9.85593 26.8105 10.3492 26.8105 11.1034C26.8105 11.9991 27.3552 12.3752 28.1399 12.3752H28.4642L27.9454 13.3854ZM28.5058 13.3865L30.6255 8.76163H32.2326L34.3503 13.3865H32.9398L32.5508 12.4604H30.277L29.8858 13.3865H28.5058ZM32.1034 11.456L31.4103 9.83769L30.7152 11.456H32.1034ZM34.4948 13.3854V8.76058H36.0613L38.0615 11.6663V8.76058H39.2937V13.3854H37.7778L35.727 10.4036V13.3854H34.4948ZM9.98096 21.479V16.8542H14.0016V17.8887H11.2261V18.6797H13.9368V19.6534H11.2261V20.4749H14.0016V21.479H9.98096ZM29.683 21.479V16.8542H33.7037V17.8887H30.9281V18.6797H33.6258V19.6534H30.9281V20.4749H33.7037V21.479H29.683ZM14.1589 21.479L16.1165 19.1951L14.1123 16.8542H15.6646L16.8583 18.3013L18.0559 16.8542H19.5475L17.5696 19.1666L19.5308 21.479H17.9787L16.8198 20.0546L15.6889 21.479H14.1589ZM19.6771 21.4795V16.8547H22.3987C23.5155 16.8547 24.1679 17.5301 24.1679 18.4102C24.1679 19.4727 23.3361 20.019 22.2386 20.019H20.9416V21.4795H19.6771ZM22.3077 17.9006H20.9418V18.9655H22.3036C22.6635 18.9655 22.9156 18.7417 22.9156 18.433C22.9156 18.1045 22.6622 17.9006 22.3077 17.9006ZM24.7031 21.479V16.8542H27.4451C28.3536 16.8542 29.1676 17.3813 29.1676 18.3546C29.1676 19.1865 28.4813 19.7224 27.8159 19.7751L29.4372 21.479H27.9314L26.4541 19.8359H25.9353V21.479H24.7031ZM27.3434 17.8887H25.935V18.8624H27.3617C27.6086 18.8624 27.9271 18.6828 27.9271 18.3755C27.9271 18.1367 27.6813 17.8887 27.3434 17.8887ZM34.2743 21.479V20.4749H36.7402C37.105 20.4749 37.263 20.2899 37.263 20.087C37.263 19.8925 37.1055 19.696 36.7402 19.696H35.6258C34.6572 19.696 34.1178 19.1422 34.1178 18.3108C34.1178 17.5693 34.6118 16.8542 36.0511 16.8542H38.4506L37.9318 17.8947H35.8566C35.4599 17.8947 35.3378 18.0901 35.3378 18.2766C35.3378 18.4683 35.4887 18.6797 35.7917 18.6797H36.959C38.0388 18.6797 38.5073 19.2545 38.5073 20.0071C38.5073 20.8162 37.9852 21.479 36.9002 21.479H34.2743ZM38.6156 21.479V20.4749H41.0815C41.4464 20.4749 41.6044 20.2899 41.6044 20.087C41.6044 19.8925 41.4469 19.696 41.0815 19.696H39.9672C38.9986 19.696 38.4592 19.1422 38.4592 18.3108C38.4592 17.5693 38.9532 16.8542 40.3925 16.8542H42.7919L42.2731 17.8947H40.1979C39.8013 17.8947 39.6791 18.0901 39.6791 18.2766C39.6791 18.4683 39.83 18.6797 40.1331 18.6797H41.3004C42.3801 18.6797 42.8487 19.2545 42.8487 20.0071C42.8487 20.8162 42.3266 21.479 41.2416 21.479H38.6156Z" fill="black"/>
<defs>
<filter id="filter0_d" x="0" y="0" width="45" height="31" filterUnits="userSpaceOnUse" color-interpolation-filters="sRGB">
<feFlood flood-opacity="0" result="BackgroundImageFix"/>
<feColorMatrix in="SourceAlpha" type="matrix" values="0 0 0 0 0 0 0 0 0 0 0 0 0 0 0 0 0 0 127 0"/>
<feOffset dx="1" dy="1"/>
<feColorMatrix type="matrix" values="0 0 0 0 0 0 0 0 0 0 0 0 0 0 0 0 0 0 1 0"/>
<feBlend mode="normal" in2="BackgroundImageFix" result="effect1_dropShadow"/>
<feBlend mode="normal" in="SourceGraphic" in2="effect1_dropShadow" result="shape"/>
</filter>
</defs>
</svg>
