<svg width="45" height="31" viewBox="0 0 45 31" fill="none" xmlns="http://www.w3.org/2000/svg">
<g filter="url(#filter0_d)">
<rect width="44" height="30" rx="3" fill="#E8EEFF"/>
<rect x="0.5" y="0.5" width="43" height="29" rx="2.5" stroke="black"/>
</g>
<path fill-rule="evenodd" clip-rule="evenodd" d="M20.2386 15.3117C20.2406 13.4824 21.7254 12 23.5558 12C25.3858 12 26.8678 13.4824 26.8658 15.3117C26.8639 17.141 25.3786 18.6239 23.5486 18.6239C21.7182 18.6239 20.2366 17.141 20.2386 15.3117ZM18.3223 18.5462C16.4737 18.5462 15.0372 17.1261 15.0372 15.2945C15.0372 13.4827 16.5117 12.0337 18.3509 12.0337C18.8734 12.0337 19.3115 12.1459 19.8444 12.4165V13.8465C19.3397 13.3522 18.9013 13.1454 18.3223 13.1454C17.1835 13.1454 16.2883 14.0891 16.2883 15.2854C16.2883 16.5473 17.1561 17.4349 18.3788 17.4349C18.9292 17.4349 19.3592 17.2387 19.8444 16.7524V18.1832C19.2925 18.4434 18.8448 18.5462 18.3223 18.5462ZM12.8642 14.5657C12.1356 14.2958 11.9219 14.1179 11.9219 13.7811C11.9219 13.3887 12.303 13.0904 12.8262 13.0904C13.1898 13.0904 13.4889 13.2402 13.8051 13.595L14.4404 12.7623C13.9184 12.3051 13.2939 12.0716 12.6115 12.0716C11.5102 12.0716 10.6703 12.8372 10.6703 13.8569C10.6703 14.7154 11.0613 15.155 12.2015 15.5657C12.6769 15.7338 12.9188 15.8455 13.0407 15.9206C13.2833 16.0792 13.4047 16.3038 13.4047 16.5655C13.4047 17.0704 13.0039 17.4445 12.4622 17.4445C11.8832 17.4445 11.4167 17.1544 11.1373 16.6132L10.3529 17.3694C10.9122 18.1915 11.584 18.5557 12.5079 18.5557C13.7693 18.5557 14.6544 17.7158 14.6544 16.5097C14.6544 15.5195 14.2451 15.0715 12.8642 14.5657ZM9.89577 18.4059H8.68172V12.1746H9.89577V18.4059ZM4.53872 17.351C5.32308 17.351 5.81866 17.2005 6.20002 16.8555C6.61985 16.4814 6.87233 15.8837 6.87233 15.2854C6.87233 14.6886 6.61985 14.1084 6.20002 13.7343C5.79918 13.3708 5.32308 13.2302 4.53872 13.2302H4.21291V17.351H4.53872ZM3 12.1746H4.78201C6.75085 12.1746 8.12312 13.4556 8.12312 15.2946C8.12312 16.2116 7.70329 17.0982 6.99323 17.6864C6.3957 18.1833 5.71521 18.4057 4.77263 18.4057H3V12.1746ZM29.4701 16.3601L27.8105 12.1746H26.4841L29.1253 18.5658H29.7786L32.4674 12.1746H31.1514L29.4701 16.3601ZM36.4592 18.4058H33.0163V12.1745H36.4592V13.2303H34.2294V14.6134H36.3772V15.6688H34.2294V17.3509H36.4592V18.4058ZM38.8305 15.0434H38.4759V13.1562H38.8498C39.606 13.1562 40.0169 13.4733 40.0169 14.0797C40.0169 14.7061 39.606 15.0434 38.8305 15.0434ZM41.2663 14.0142C41.2663 12.8475 40.4637 12.1744 39.0637 12.1744H37.2634V18.4058H38.4761V15.9025H38.6345L40.3148 18.4058H41.8078L39.8483 15.7807C40.7628 15.5946 41.2663 14.9682 41.2663 14.0142Z" fill="black"/>
<defs>
<filter id="filter0_d" x="0" y="0" width="45" height="31" filterUnits="userSpaceOnUse" color-interpolation-filters="sRGB">
<feFlood flood-opacity="0" result="BackgroundImageFix"/>
<feColorMatrix in="SourceAlpha" type="matrix" values="0 0 0 0 0 0 0 0 0 0 0 0 0 0 0 0 0 0 127 0"/>
<feOffset dx="1" dy="1"/>
<feColorMatrix type="matrix" values="0 0 0 0 0 0 0 0 0 0 0 0 0 0 0 0 0 0 1 0"/>
<feBlend mode="normal" in2="BackgroundImageFix" result="effect1_dropShadow"/>
<feBlend mode="normal" in="SourceGraphic" in2="effect1_dropShadow" result="shape"/>
</filter>
</defs>
</svg>
