<svg width="34" height="34" viewBox="0 0 34 34" fill="none" xmlns="http://www.w3.org/2000/svg">
<g filter="url(#filter0_d_1905_480)">
<rect width="32" height="32" rx="3" fill="#E8EEFF"/>
<g clip-path="url(#clip0_1905_480)">
<path d="M23.9843 12.704C23.9469 11.8539 23.8094 11.2694 23.6124 10.763C23.4093 10.2254 23.0967 9.74412 22.6872 9.34401C22.2871 8.93768 21.8026 8.62195 21.2713 8.42196C20.7619 8.22502 20.1805 8.08754 19.3304 8.05006C18.4739 8.0094 18.202 8 16.0297 8C13.8574 8 13.5855 8.0094 12.7322 8.04688C11.882 8.08437 11.2975 8.22197 10.7912 8.41878C10.2535 8.62195 9.77222 8.93451 9.37212 9.34401C8.96579 9.74412 8.65018 10.2286 8.45006 10.7599C8.25313 11.2694 8.11565 11.8507 8.07817 12.7009C8.03751 13.5574 8.02811 13.8293 8.02811 16.0016C8.02811 18.1739 8.03751 18.4458 8.07499 19.2991C8.11247 20.1492 8.25007 20.7337 8.44701 21.2401C8.65018 21.7777 8.96579 22.259 9.37212 22.6591C9.77222 23.0654 10.2567 23.3812 10.788 23.5812C11.2975 23.7781 11.8788 23.9156 12.7291 23.9531C13.5823 23.9907 13.8543 24 16.0266 24C18.1989 24 18.4708 23.9907 19.3241 23.9531C20.1743 23.9156 20.7587 23.7781 21.2651 23.5812C22.3403 23.1654 23.1905 22.3153 23.6062 21.2401C23.803 20.7306 23.9406 20.1492 23.9781 19.2991C24.0156 18.4458 24.025 18.1739 24.025 16.0016C24.025 13.8293 24.0218 13.5574 23.9843 12.704ZM22.5435 19.2366C22.5091 20.018 22.3778 20.4399 22.2684 20.7212C21.9996 21.4183 21.4464 21.9715 20.7493 22.2403C20.468 22.3497 20.043 22.481 19.2647 22.5153C18.4208 22.5529 18.1677 22.5622 16.0328 22.5622C13.898 22.5622 13.6418 22.5529 12.8009 22.5153C12.0195 22.481 11.5975 22.3497 11.3162 22.2403C10.9694 22.1121 10.6536 21.909 10.3973 21.6433C10.1317 21.3838 9.9285 21.0713 9.8003 20.7244C9.69091 20.4431 9.55966 20.018 9.52535 19.2397C9.48774 18.3958 9.47846 18.1426 9.47846 16.0078C9.47846 13.873 9.48774 13.6167 9.52535 12.776C9.55966 11.9946 9.69091 11.5726 9.8003 11.2913C9.9285 10.9443 10.1317 10.6287 10.4005 10.3723C10.6598 10.1066 10.9724 9.90345 11.3194 9.77537C11.6007 9.66597 12.0258 9.53472 12.8041 9.50029C13.648 9.46281 13.9012 9.45341 16.0359 9.45341C18.1739 9.45341 18.427 9.46281 19.2678 9.50029C20.0493 9.53472 20.4712 9.66597 20.7525 9.77537C21.0994 9.90345 21.4151 10.1066 21.6714 10.3723C21.9371 10.6317 22.1402 10.9443 22.2684 11.2913C22.3778 11.5726 22.5091 11.9976 22.5435 12.776C22.581 13.6199 22.5904 13.873 22.5904 16.0078C22.5904 18.1426 22.581 18.3927 22.5435 19.2366Z" fill="black"/>
<path d="M16.0297 11.8914C13.7605 11.8914 11.9195 13.7323 11.9195 16.0015C11.9195 18.2708 13.7605 20.1117 16.0297 20.1117C18.2989 20.1117 20.1398 18.2708 20.1398 16.0015C20.1398 13.7323 18.2989 11.8914 16.0297 11.8914ZM16.0297 18.6677C14.5576 18.6677 13.3635 17.4737 13.3635 16.0015C13.3635 14.5293 14.5576 13.3354 16.0297 13.3354C17.5019 13.3354 18.6958 14.5293 18.6958 16.0015C18.6958 17.4737 17.5019 18.6677 16.0297 18.6677Z" fill="black"/>
<path d="M21.262 11.7288C21.262 12.2587 20.8324 12.6884 20.3024 12.6884C19.7725 12.6884 19.3428 12.2587 19.3428 11.7288C19.3428 11.1988 19.7725 10.7693 20.3024 10.7693C20.8324 10.7693 21.262 11.1988 21.262 11.7288Z" fill="black"/>
</g>
<rect x="0.5" y="0.5" width="31" height="31" rx="2.5" stroke="black"/>
</g>
<defs>
<filter id="filter0_d_1905_480" x="0" y="0" width="34" height="34" filterUnits="userSpaceOnUse" color-interpolation-filters="sRGB">
<feFlood flood-opacity="0" result="BackgroundImageFix"/>
<feColorMatrix in="SourceAlpha" type="matrix" values="0 0 0 0 0 0 0 0 0 0 0 0 0 0 0 0 0 0 127 0" result="hardAlpha"/>
<feOffset dx="2" dy="2"/>
<feColorMatrix type="matrix" values="0 0 0 0 0 0 0 0 0 0 0 0 0 0 0 0 0 0 1 0"/>
<feBlend mode="normal" in2="BackgroundImageFix" result="effect1_dropShadow_1905_480"/>
<feBlend mode="normal" in="SourceGraphic" in2="effect1_dropShadow_1905_480" result="shape"/>
</filter>
<clipPath id="clip0_1905_480">
<rect width="16" height="16" fill="white" transform="translate(8 8)"/>
</clipPath>
</defs>
</svg>
